<svg width="260" height="67" viewBox="0 0 260 67" fill="none" xmlns="http://www.w3.org/2000/svg">
<rect width="260" height="67" fill="#7AC751"/>
<path d="M74.56 40C74.4747 40 74.3947 39.968 74.32 39.904C74.256 39.84 74.224 39.76 74.224 39.664L74.256 39.52L78.112 29.2C78.1867 28.9333 78.3733 28.8 78.672 28.8H80.416C80.6933 28.8 80.88 28.9333 80.976 29.2L84.832 39.52C84.8427 39.552 84.848 39.6 84.848 39.664C84.848 39.76 84.816 39.84 84.752 39.904C84.688 39.968 84.6133 40 84.528 40H83.136C82.9973 40 82.8907 39.968 82.816 39.904C82.7413 39.84 82.6933 39.7707 82.672 39.696L81.92 37.744H77.168L76.416 39.696C76.3307 39.8987 76.176 40 75.952 40H74.56ZM81.36 35.904L79.536 30.96L77.728 35.904H81.36ZM87.0457 40C86.9391 40 86.8484 39.9627 86.7737 39.888C86.6991 39.8133 86.6617 39.7227 86.6617 39.616V29.184C86.6617 29.0667 86.6991 28.976 86.7737 28.912C86.8484 28.8373 86.9391 28.8 87.0457 28.8H88.5337C88.6511 28.8 88.7417 28.8373 88.8057 28.912C88.8804 28.976 88.9177 29.0667 88.9177 29.184V38.096H93.9897C94.1071 38.096 94.2031 38.1333 94.2778 38.208C94.3524 38.2827 94.3898 38.3787 94.3898 38.496V39.616C94.3898 39.7333 94.3524 39.8293 94.2778 39.904C94.2031 39.968 94.1071 40 93.9897 40H87.0457ZM96.647 40C96.5403 40 96.4497 39.9627 96.375 39.888C96.3003 39.8133 96.263 39.7227 96.263 39.616V29.184C96.263 29.0667 96.3003 28.976 96.375 28.912C96.4497 28.8373 96.5403 28.8 96.647 28.8H98.135C98.2523 28.8 98.343 28.8373 98.407 28.912C98.4817 28.976 98.519 29.0667 98.519 29.184V38.096H103.591C103.708 38.096 103.804 38.1333 103.879 38.208C103.954 38.2827 103.991 38.3787 103.991 38.496V39.616C103.991 39.7333 103.954 39.8293 103.879 39.904C103.804 39.968 103.708 40 103.591 40H96.647ZM113.754 40.16C112.282 40.16 111.141 39.7813 110.33 39.024C109.53 38.2667 109.104 37.2 109.05 35.824C109.04 35.536 109.034 35.0667 109.034 34.416C109.034 33.7547 109.04 33.2747 109.05 32.976C109.104 31.6107 109.536 30.5493 110.346 29.792C111.168 29.024 112.304 28.64 113.754 28.64C114.704 28.64 115.53 28.8053 116.234 29.136C116.938 29.456 117.482 29.8987 117.866 30.464C118.25 31.0187 118.453 31.648 118.474 32.352V32.384C118.474 32.4693 118.437 32.544 118.362 32.608C118.298 32.6613 118.224 32.688 118.138 32.688H116.618C116.49 32.688 116.394 32.6613 116.33 32.608C116.266 32.5547 116.213 32.4533 116.17 32.304C116 31.632 115.717 31.1627 115.322 30.896C114.928 30.6187 114.4 30.48 113.738 30.48C112.202 30.48 111.402 31.3387 111.338 33.056C111.328 33.344 111.322 33.7867 111.322 34.384C111.322 34.9813 111.328 35.4347 111.338 35.744C111.402 37.4613 112.202 38.32 113.738 38.32C114.4 38.32 114.928 38.1813 115.322 37.904C115.728 37.6267 116.01 37.1573 116.17 36.496C116.202 36.3467 116.25 36.2453 116.314 36.192C116.389 36.1387 116.49 36.112 116.618 36.112H118.138C118.234 36.112 118.314 36.144 118.378 36.208C118.453 36.272 118.485 36.352 118.474 36.448C118.453 37.152 118.25 37.7867 117.866 38.352C117.482 38.9067 116.938 39.3493 116.234 39.68C115.53 40 114.704 40.16 113.754 40.16ZM124.996 40.16C123.545 40.16 122.414 39.792 121.604 39.056C120.793 38.32 120.366 37.2267 120.324 35.776C120.313 35.4667 120.308 35.0133 120.308 34.416C120.308 33.808 120.313 33.3493 120.324 33.04C120.366 31.6213 120.804 30.5333 121.636 29.776C122.468 29.0187 123.588 28.64 124.996 28.64C126.404 28.64 127.524 29.0187 128.356 29.776C129.198 30.5333 129.641 31.6213 129.684 33.04C129.705 33.6587 129.716 34.1173 129.716 34.416C129.716 34.704 129.705 35.1573 129.684 35.776C129.63 37.2267 129.198 38.32 128.388 39.056C127.577 39.792 126.446 40.16 124.996 40.16ZM124.996 38.32C125.71 38.32 126.281 38.1067 126.708 37.68C127.134 37.2427 127.364 36.5813 127.396 35.696C127.417 35.056 127.428 34.624 127.428 34.4C127.428 34.1547 127.417 33.7227 127.396 33.104C127.364 32.2187 127.134 31.5627 126.708 31.136C126.281 30.6987 125.71 30.48 124.996 30.48C124.292 30.48 123.726 30.6987 123.3 31.136C122.873 31.5627 122.644 32.2187 122.612 33.104C122.601 33.4133 122.596 33.8453 122.596 34.4C122.596 34.944 122.601 35.376 122.612 35.696C122.644 36.5813 122.868 37.2427 123.284 37.68C123.71 38.1067 124.281 38.32 124.996 38.32ZM132.521 40C132.414 40 132.323 39.9627 132.249 39.888C132.174 39.8133 132.137 39.7227 132.137 39.616V29.184C132.137 29.0667 132.174 28.976 132.249 28.912C132.323 28.8373 132.414 28.8 132.521 28.8H134.009C134.126 28.8 134.217 28.8373 134.281 28.912C134.355 28.976 134.393 29.0667 134.393 29.184V38.096H139.465C139.582 38.096 139.678 38.1333 139.753 38.208C139.827 38.2827 139.865 38.3787 139.865 38.496V39.616C139.865 39.7333 139.827 39.8293 139.753 39.904C139.678 39.968 139.582 40 139.465 40H132.521ZM142.122 40C142.015 40 141.925 39.9627 141.85 39.888C141.775 39.8133 141.738 39.7227 141.738 39.616V29.184C141.738 29.0667 141.775 28.976 141.85 28.912C141.925 28.8373 142.015 28.8 142.122 28.8H143.61C143.727 28.8 143.818 28.8373 143.882 28.912C143.957 28.976 143.994 29.0667 143.994 29.184V38.096H149.066C149.183 38.096 149.279 38.1333 149.354 38.208C149.429 38.2827 149.466 38.3787 149.466 38.496V39.616C149.466 39.7333 149.429 39.8293 149.354 39.904C149.279 39.968 149.183 40 149.066 40H142.122ZM151.723 40C151.617 40 151.526 39.9627 151.451 39.888C151.377 39.8133 151.339 39.7227 151.339 39.616V29.2C151.339 29.0827 151.371 28.9867 151.435 28.912C151.51 28.8373 151.606 28.8 151.723 28.8H158.763C158.881 28.8 158.977 28.8373 159.051 28.912C159.126 28.9867 159.163 29.0827 159.163 29.2V30.256C159.163 30.3733 159.126 30.4693 159.051 30.544C158.977 30.608 158.881 30.64 158.763 30.64H153.499V33.472H158.411C158.529 33.472 158.625 33.5093 158.699 33.584C158.774 33.648 158.811 33.7387 158.811 33.856V34.848C158.811 34.9653 158.774 35.0613 158.699 35.136C158.625 35.2 158.529 35.232 158.411 35.232H153.499V38.16H158.891C159.009 38.16 159.105 38.1973 159.179 38.272C159.254 38.3467 159.291 38.4427 159.291 38.56V39.616C159.291 39.7333 159.254 39.8293 159.179 39.904C159.105 39.968 159.009 40 158.891 40H151.723ZM165.839 40.16C164.367 40.16 163.225 39.7813 162.415 39.024C161.615 38.2667 161.188 37.2 161.135 35.824C161.124 35.536 161.119 35.0667 161.119 34.416C161.119 33.7547 161.124 33.2747 161.135 32.976C161.188 31.6107 161.62 30.5493 162.431 29.792C163.252 29.024 164.388 28.64 165.839 28.64C166.788 28.64 167.615 28.8053 168.319 29.136C169.023 29.456 169.567 29.8987 169.951 30.464C170.335 31.0187 170.537 31.648 170.559 32.352V32.384C170.559 32.4693 170.521 32.544 170.447 32.608C170.383 32.6613 170.308 32.688 170.223 32.688H168.703C168.575 32.688 168.479 32.6613 168.415 32.608C168.351 32.5547 168.297 32.4533 168.255 32.304C168.084 31.632 167.801 31.1627 167.407 30.896C167.012 30.6187 166.484 30.48 165.823 30.48C164.287 30.48 163.487 31.3387 163.423 33.056C163.412 33.344 163.407 33.7867 163.407 34.384C163.407 34.9813 163.412 35.4347 163.423 35.744C163.487 37.4613 164.287 38.32 165.823 38.32C166.484 38.32 167.012 38.1813 167.407 37.904C167.812 37.6267 168.095 37.1573 168.255 36.496C168.287 36.3467 168.335 36.2453 168.399 36.192C168.473 36.1387 168.575 36.112 168.703 36.112H170.223C170.319 36.112 170.399 36.144 170.463 36.208C170.537 36.272 170.569 36.352 170.559 36.448C170.537 37.152 170.335 37.7867 169.951 38.352C169.567 38.9067 169.023 39.3493 168.319 39.68C167.615 40 166.788 40.16 165.839 40.16ZM175.624 40C175.517 40 175.427 39.9627 175.352 39.888C175.277 39.8133 175.24 39.7227 175.24 39.616V30.768H172.28C172.173 30.768 172.083 30.7307 172.008 30.656C171.933 30.5813 171.896 30.4907 171.896 30.384V29.2C171.896 29.0827 171.928 28.9867 171.992 28.912C172.067 28.8373 172.163 28.8 172.28 28.8H180.44C180.557 28.8 180.653 28.8373 180.728 28.912C180.803 28.9867 180.84 29.0827 180.84 29.2V30.384C180.84 30.4907 180.803 30.5813 180.728 30.656C180.653 30.7307 180.557 30.768 180.44 30.768H177.496V39.616C177.496 39.7227 177.459 39.8133 177.384 39.888C177.309 39.9627 177.213 40 177.096 40H175.624ZM183.168 40C183.061 40 182.97 39.9627 182.896 39.888C182.821 39.8133 182.784 39.7227 182.784 39.616V29.184C182.784 29.0667 182.821 28.976 182.896 28.912C182.97 28.8373 183.061 28.8 183.168 28.8H184.672C184.789 28.8 184.88 28.8373 184.944 28.912C185.018 28.976 185.056 29.0667 185.056 29.184V39.616C185.056 39.7227 185.018 39.8133 184.944 39.888C184.88 39.9627 184.789 40 184.672 40H183.168ZM192.189 40.16C190.738 40.16 189.608 39.792 188.797 39.056C187.986 38.32 187.56 37.2267 187.517 35.776C187.506 35.4667 187.501 35.0133 187.501 34.416C187.501 33.808 187.506 33.3493 187.517 33.04C187.56 31.6213 187.997 30.5333 188.829 29.776C189.661 29.0187 190.781 28.64 192.189 28.64C193.597 28.64 194.717 29.0187 195.549 29.776C196.392 30.5333 196.834 31.6213 196.877 33.04C196.898 33.6587 196.909 34.1173 196.909 34.416C196.909 34.704 196.898 35.1573 196.877 35.776C196.824 37.2267 196.392 38.32 195.581 39.056C194.77 39.792 193.64 40.16 192.189 40.16ZM192.189 38.32C192.904 38.32 193.474 38.1067 193.901 37.68C194.328 37.2427 194.557 36.5813 194.589 35.696C194.61 35.056 194.621 34.624 194.621 34.4C194.621 34.1547 194.61 33.7227 194.589 33.104C194.557 32.2187 194.328 31.5627 193.901 31.136C193.474 30.6987 192.904 30.48 192.189 30.48C191.485 30.48 190.92 30.6987 190.493 31.136C190.066 31.5627 189.837 32.2187 189.805 33.104C189.794 33.4133 189.789 33.8453 189.789 34.4C189.789 34.944 189.794 35.376 189.805 35.696C189.837 36.5813 190.061 37.2427 190.477 37.68C190.904 38.1067 191.474 38.32 192.189 38.32ZM199.714 40C199.607 40 199.517 39.9627 199.442 39.888C199.367 39.8133 199.33 39.7227 199.33 39.616V29.2C199.33 29.0827 199.362 28.9867 199.426 28.912C199.501 28.8373 199.597 28.8 199.714 28.8H200.946C201.074 28.8 201.17 28.8267 201.234 28.88C201.298 28.9227 201.357 28.9813 201.41 29.056L206.018 36.224V29.2C206.018 29.0827 206.05 28.9867 206.114 28.912C206.189 28.8373 206.285 28.8 206.402 28.8H207.746C207.863 28.8 207.959 28.8373 208.034 28.912C208.109 28.9867 208.146 29.0827 208.146 29.2V39.6C208.146 39.7173 208.109 39.8133 208.034 39.888C207.959 39.9627 207.869 40 207.762 40H206.514C206.333 40 206.178 39.9147 206.05 39.744L201.458 32.736V39.616C201.458 39.7333 201.421 39.8293 201.346 39.904C201.271 39.968 201.175 40 201.058 40H199.714ZM214.85 40.16C213.901 40.16 213.085 40.016 212.402 39.728C211.72 39.44 211.202 39.0613 210.85 38.592C210.498 38.1227 210.312 37.616 210.29 37.072C210.29 36.976 210.322 36.896 210.386 36.832C210.45 36.768 210.53 36.736 210.626 36.736H212.05C212.178 36.736 212.274 36.7627 212.338 36.816C212.413 36.8587 212.482 36.9333 212.546 37.04C212.653 37.4027 212.898 37.7067 213.282 37.952C213.666 38.1973 214.189 38.32 214.85 38.32C215.608 38.32 216.178 38.1973 216.562 37.952C216.946 37.696 217.138 37.344 217.138 36.896C217.138 36.5973 217.037 36.352 216.834 36.16C216.642 35.968 216.349 35.8027 215.954 35.664C215.57 35.5253 214.994 35.3547 214.226 35.152C212.968 34.8533 212.045 34.4587 211.458 33.968C210.882 33.4667 210.594 32.7573 210.594 31.84C210.594 31.2213 210.76 30.672 211.09 30.192C211.432 29.712 211.917 29.3333 212.546 29.056C213.186 28.7787 213.928 28.64 214.77 28.64C215.645 28.64 216.402 28.7947 217.042 29.104C217.682 29.4133 218.168 29.8027 218.498 30.272C218.84 30.7307 219.021 31.1893 219.042 31.648C219.042 31.744 219.01 31.824 218.946 31.888C218.882 31.952 218.802 31.984 218.706 31.984H217.218C216.994 31.984 216.84 31.8827 216.754 31.68C216.69 31.3387 216.477 31.056 216.114 30.832C215.752 30.5973 215.304 30.48 214.77 30.48C214.173 30.48 213.704 30.592 213.362 30.816C213.021 31.04 212.85 31.3653 212.85 31.792C212.85 32.0907 212.936 32.336 213.106 32.528C213.277 32.72 213.544 32.8907 213.906 33.04C214.28 33.1893 214.813 33.3547 215.506 33.536C216.445 33.7493 217.192 33.9893 217.746 34.256C218.312 34.5227 218.728 34.8587 218.994 35.264C219.261 35.6693 219.394 36.1867 219.394 36.816C219.394 37.4987 219.202 38.096 218.818 38.608C218.445 39.1093 217.912 39.4933 217.218 39.76C216.536 40.0267 215.746 40.16 214.85 40.16Z" fill="white"/>
<path d="M33 35H45" stroke="white" stroke-width="2.5" stroke-linecap="round" stroke-linejoin="round"/>
<path d="M33 28H51" stroke="white" stroke-width="2.5" stroke-linecap="round" stroke-linejoin="round"/>
<path d="M33 42H39" stroke="white" stroke-width="2.5" stroke-linecap="round" stroke-linejoin="round"/>
</svg>
